# xmcd CD database file
#
# Track frame offsets:
#	150
#	19805
#	52825
#	70077
#	81907
#	121317
#	124487
#	143815
#	182560
#	204260
#	229945
#	238020
#	290105
#	320893
#
# Disc length: 4795 seconds
#
# Revision: 0
# Processed by: cddbd v1.5PL3 Copyright (c) Steve Scherf et al.
# Submitted via: CDex 1.51
#
DISCID=d012b90e
DTITLE=Various Artist - りょー子先生の診療室　〜迷える子羊には愛のムチよ〜
DYEAR=2004
DGENRE=Anime
TTITLE0=01 井上喜久子/迷える子羊には愛のムチよ
TTITLE1=02 ドラマ「りょー子先生はご機嫌ななめ」
TTITLE2=03 ドラマ「うわさの峰菱式遺伝子診断」
TTITLE3=04 ドラマ「告訴！」
TTITLE4=05 ドラマ「昼下がりのＳＥＸＹ　ＶＯＩＣＥ」
TTITLE5=06 ドラマ「大人って…」
TTITLE6=07 井上喜久子/りょー子のブルース
TTITLE7=08 ドラマ「小５Ｌｏｖｅｒｓ」
TTITLE8=09 ドラマ「絆」
TTITLE9=10 ドラマ「１０月の海水浴　〜再会〜」
TTITLE10=11 永井のあ/Hello!!
TTITLE11=12 ドラマ「ほぼハッピーエンド」
TTITLE12=13 井上喜久子＆永井のあ/診療室はパラダイス
TTITLE13=14　不明
EXTD=YEAR: 2004/01/21
EXTT0=
EXTT1=
EXTT2=
EXTT3=
EXTT4=
EXTT5=
EXTT6=
EXTT7=
EXTT8=
EXTT9=
EXTT10=
EXTT11=
EXTT12=
EXTT13=
PLAYORDER=
